<?xml version="1.0" standalone="no"?>
<!DOCTYPE svg PUBLIC "-//W3C//DTD SVG 20010904//EN"
 "http://www.w3.org/TR/2001/REC-SVG-20010904/DTD/svg10.dtd">
<svg version="1.0" xmlns="http://www.w3.org/2000/svg"
 width="302.000000pt" height="302.000000pt" viewBox="0 0 302.000000 302.000000"
 preserveAspectRatio="xMidYMid meet">
<metadata>
Created by potrace 1.11, written by Peter Selinger 2001-2013
</metadata>
<g transform="translate(0.000000,302.000000) scale(0.100000,-0.100000)"
fill="#000000" stroke="none">
<path d="M878 2075 c-120 -30 -231 -111 -298 -215 -46 -71 -74 -195 -68 -300
8 -140 64 -319 124 -399 228 -304 643 -289 890 32 l30 39 31 -49 c204 -315
688 -317 880 -3 63 103 83 302 44 431 -11 35 -22 80 -26 99 -14 71 -66 162
-129 224 -103 103 -229 156 -371 156 -155 0 -274 -50 -391 -165 -39 -38 -79
-81 -88 -95 l-17 -25 -17 25 c-75 111 -168 188 -279 230 -75 29 -232 36 -315
15z m369 -359 c60 -16 143 -54 143 -65 0 -18 -106 -176 -151 -226 -89 -96
-175 -131 -306 -123 -95 6 -156 31 -212 87 -46 46 -50 68 -26 147 27 90 104
157 217 189 65 18 256 13 335 -9z m902 14 c78 -13 126 -37 174 -86 41 -42 47
-81 25 -145 -47 -137 -166 -203 -365 -201 -112 1 -211 21 -286 59 l-47 23 16
33 c33 63 117 177 163 221 71 66 133 92 246 105 6 0 39 -4 74 -9z"/>
</g>
</svg>
